<?xml version="1.0" encoding="utf-8"?>
<!-- Generator: Adobe Illustrator 25.2.0, SVG Export Plug-In . SVG Version: 6.00 Build 0)  -->
<svg version="1.1" id="Quantela" xmlns="http://www.w3.org/2000/svg" xmlns:xlink="http://www.w3.org/1999/xlink" x="0px" y="0px"
	 viewBox="0 0 1920 1080" style="enable-background:new 0 0 1920 1080;" xml:space="preserve">
<style type="text/css">
	.st0{fill:#FFFFFF;}
</style>
<g>
	<path class="st0" d="M689.33,536.37c0,28.42-20.61,37.79-37.17,37.79c-16.24,0-30.3-12.18-30.3-35.61v-80.27h-36.23v81.83
		c0,42.48,20.93,67.77,58.41,67.77c14.68,0,37.79-8.12,45.29-26.55v22.8h36.23V458.29h-36.23V536.37z"/>
	<path class="st0" d="M868.79,478.59c-9.68-15.3-29.05-24.05-49.04-24.05c-41.23,0-71.21,32.48-71.21,76.52
		c0,45.29,31.23,76.83,70.27,76.83c20.93,0,40.29-10.62,49.97-26.55v22.8h36.23V458.29h-36.23V478.59z M826.32,574.16
		c-23.74,0-41.54-19.68-41.54-43.1c0-23.42,17.8-42.79,41.23-42.79c21.55,0,42.16,17.8,42.16,42.79
		C868.17,555.42,848.8,574.16,826.32,574.16z"/>
	<path class="st0" d="M1017.15,454.54c-14.99,0-37.79,8.43-45.29,26.86v-23.11h-36.23v145.86h36.23v-77.46
		c0-28.11,20.61-37.79,37.17-37.79c16.24,0,30.29,12.49,30.29,35.92v79.33h36.23v-81.83
		C1075.55,479.84,1054.62,454.54,1017.15,454.54z"/>
	<path class="st0" d="M1258.86,454.54c-41.85,0-76.52,29.98-76.52,76.52c0,45.6,33.11,76.83,76.52,76.83
		c26.55,0,52.47-11.87,65.9-33.11l-24.36-18.43c-8.43,11.87-23.74,18.74-39.35,18.74c-21.86,0-37.48-10.93-41.54-31.23h113.06
		c0.31-5.31,0.62-9.99,0.62-14.05C1333.2,484.21,1300.4,454.54,1258.86,454.54z M1219.51,518.57c4.37-22.18,20.3-31.86,39.67-31.86
		c20.3,0,35.92,11.87,38.1,31.86H1219.51z"/>
	<path class="st0" d="M1533.86,458.29v20.3c-9.68-15.3-29.05-24.05-49.04-24.05c-41.23,0-71.21,32.48-71.21,76.52
		c0,45.29,31.23,76.83,70.27,76.83c20.93,0,40.29-10.62,49.97-26.55v22.8h36.23V458.29H1533.86z M1491.38,574.16
		c-23.74,0-41.54-19.68-41.54-43.1c0-23.42,17.8-42.79,41.23-42.79c21.55,0,42.16,17.8,42.16,42.79
		C1533.23,555.42,1513.87,574.16,1491.38,574.16z"/>
	<rect x="1354.46" y="407.24" class="st0" width="36.23" height="196.9"/>
	<polygon class="st0" points="1148.43,407.24 1112.2,407.24 1112.2,458.29 1085.97,458.29 1085.97,487.02 1112.2,487.02 
		1112.2,604.15 1148.43,604.15 1148.43,487.02 1179.35,487.02 1179.35,458.29 1148.43,458.29 	"/>
</g>
<path class="st0" d="M596.9,618.85l-84.17-84.17h41.95c3.19-10.04,4.91-20.73,4.91-31.83c0-58.01-47.03-105.05-105.05-105.05
	s-105.05,47.03-105.05,105.05s47.03,105.05,105.05,105.05c22.28,0,42.94-6.94,59.94-18.77l29.73,29.73H596.9z M454.54,569.18
	c-36.58,0-66.33-29.76-66.33-66.33s29.76-66.33,66.33-66.33c36.57,0,66.33,29.76,66.33,66.33c0,11.53-2.96,22.38-8.15,31.83
	l-16.17-16.17h-52.69l42.51,42.51C476.92,566.22,466.07,569.18,454.54,569.18z"/>
</svg>
